<svg width="NaN" height="NaN" xmlns="http://www.w3.org/2000/svg">

 <g>
  <title>Layer 1</title>
  <ellipse stroke="#000" stroke-width="0" ry="237.99999" rx="237.99999" id="svg_1" cy="239.49999" cx="239.49999" opacity="undefined" fill="#ff7f00"/>
  <text stroke="#000" transform="matrix(3.8620655697169295,0,0,3.8620655697169295,-662.4364008311903,-745.331645140311) " font-style="normal" font-weight="normal" xml:space="preserve" text-anchor="start" font-family="'Montserrat Black'" font-size="24" id="svg_3" y="265.80466" x="191.03487" opacity="undefined" stroke-opacity="null" stroke-dasharray="null" stroke-width="0" fill="#ffffff">THIMK</text>
  <text font-style="normal" font-weight="normal" stroke="#000" transform="matrix(13.403887687318239,0,0,13.403887687318239,-707.2211313335937,-3013.9139535093595) " xml:space="preserve" text-anchor="start" font-family="monospace" font-size="24" id="svg_10" y="248.43224" x="49.83055" opacity="undefined" stroke-opacity="null" stroke-dasharray="null" stroke-width="0" fill="#ffffff">{</text>
  <path d="m150,127.5c0,-1 0,-3 0,-5c0,-2 0,-5 0,-8c0,-4 0,-8 0,-12c0,-3 1.49347,-5.87856 2,-9c0.16019,-0.98709 0.77023,-3.02675 1,-4c0.51373,-2.17625 3,-4 5,-6c1,-1 2,-2 4,-3c0,0 1,0 2,0c0,0 0,0 1,0c0,0 1,0 1,0c2,1 4,2 5,3c1,1 3,4 4,6c1,2 1,5 2,7c1,2 1,4 1,5l0,0l0,1" id="svg_16" opacity="undefined" stroke-opacity="null" stroke-dasharray="null" stroke-width="0" stroke="#000" fill="none"/>
  <text font-style="normal" font-weight="normal" stroke="#000" transform="matrix(13.403887687318239,0,0,13.403887687318239,-707.2211313335937,-3013.9139535093595) " xml:space="preserve" text-anchor="start" font-family="monospace" font-size="24" id="svg_17" y="248.50684" x="77.06146" opacity="undefined" stroke-opacity="null" stroke-dasharray="null" stroke-width="0" fill="#ffffff">}</text>
 </g>
</svg>
